<svg data-v-423bf9ae="" xmlns="http://www.w3.org/2000/svg" viewBox="0 0 540 90" class="iconLeft"><!----><!----><!----><g data-v-423bf9ae="" id="c586eefe-9e96-4c5c-8d73-313d3b7c56f4" fill="#12292A" transform="matrix(4.573170439180078,0,0,4.573170439180078,80.50841025949484,0.5487803044168515)"><path d="M1.68 13.55L5.56 13.55C8.36 13.55 10.60 11.38 10.60 8.67C10.60 5.92 8.36 3.77 5.57 3.77L1.68 3.77ZM2.27 12.98L2.27 4.34L5.56 4.34C8.02 4.34 10.00 6.26 10.00 8.67C10.00 11.06 8.02 12.98 5.57 12.98ZM12.05 11.42C12.05 12.66 13.02 13.57 14.46 13.57C15.72 13.57 16.76 13.12 17.37 12.11L17.39 13.55L17.96 13.55L17.93 8.71C17.92 7.20 16.98 6.24 15.26 6.24C14.15 6.24 13.31 6.65 12.45 7.28L12.73 7.73C13.50 7.14 14.27 6.78 15.18 6.78C16.63 6.78 17.35 7.52 17.36 8.75L17.36 9.46L14.77 9.46C13.09 9.46 12.05 10.21 12.05 11.42ZM12.61 11.41C12.61 10.47 13.40 9.98 14.83 9.98L17.37 9.98L17.37 11.17C16.93 12.45 15.90 13.03 14.55 13.03C13.36 13.03 12.61 12.38 12.61 11.41ZM20.44 4.16C20.44 4.45 20.66 4.68 20.93 4.68C21.20 4.68 21.42 4.45 21.42 4.16C21.42 3.88 21.20 3.65 20.93 3.65C20.66 3.65 20.44 3.88 20.44 4.16ZM20.64 13.55L21.21 13.55L21.21 6.26L20.64 6.26ZM24.21 13.55L24.79 13.55L24.79 3.16L24.21 3.16ZM26.17 15.86C26.54 16.14 27.02 16.28 27.55 16.28C28.41 16.28 29.12 15.69 29.57 14.60L32.96 6.26L32.34 6.26L29.72 12.87L27.03 6.26L26.42 6.26L29.43 13.55L29.09 14.38C28.74 15.23 28.18 15.69 27.52 15.69C27.12 15.69 26.74 15.58 26.42 15.36ZM37.66 8.65C37.66 11.37 39.93 13.57 42.71 13.57C44.02 13.57 45.28 13.08 46.19 12.29L46.19 8.75L45.65 8.75L45.65 12.00C44.86 12.63 43.82 13.01 42.74 13.01C40.26 13.01 38.25 11.06 38.25 8.65C38.25 6.26 40.26 4.31 42.74 4.31C43.92 4.31 45.02 4.75 45.84 5.47L46.19 5.04C45.28 4.24 44.06 3.75 42.74 3.75C39.94 3.75 37.66 5.94 37.66 8.65ZM49.08 13.55L49.67 13.55L49.67 9.60C49.80 7.91 50.78 6.85 52.39 6.85L52.39 6.24C51.09 6.27 50.13 6.92 49.67 8.09L49.67 6.26L49.08 6.26ZM53.34 11.42C53.34 12.66 54.31 13.57 55.75 13.57C57.01 13.57 58.04 13.12 58.66 12.11L58.67 13.55L59.25 13.55L59.22 8.71C59.21 7.20 58.27 6.24 56.55 6.24C55.44 6.24 54.60 6.65 53.73 7.28L54.01 7.73C54.78 7.14 55.55 6.78 56.46 6.78C57.92 6.78 58.63 7.52 58.65 8.75L58.65 9.46L56.06 9.46C54.38 9.46 53.34 10.21 53.34 11.42ZM53.90 11.41C53.90 10.47 54.68 9.98 56.11 9.98L58.66 9.98L58.66 11.17C58.21 12.45 57.19 13.03 55.83 13.03C54.64 13.03 53.90 12.38 53.90 11.41ZM61.11 6.94L62.17 6.94L62.17 11.54C62.17 12.91 62.79 13.58 63.83 13.57C64.37 13.57 64.89 13.37 65.35 13.05L65.13 12.57C64.75 12.84 64.32 12.99 63.90 12.99C63.14 13.01 62.73 12.50 62.73 11.47L62.73 6.94L65.21 6.94L65.21 6.44L62.73 6.44L62.73 4.63L62.17 4.63L62.17 6.44L61.11 6.44ZM66.93 4.16C66.93 4.45 67.16 4.68 67.42 4.68C67.69 4.68 67.91 4.45 67.91 4.16C67.91 3.88 67.69 3.65 67.42 3.65C67.16 3.65 66.93 3.88 66.93 4.16ZM67.13 13.55L67.70 13.55L67.70 6.26L67.13 6.26ZM69.82 6.94L70.88 6.94L70.88 11.54C70.88 12.91 71.50 13.58 72.53 13.57C73.08 13.57 73.60 13.37 74.06 13.05L73.84 12.57C73.46 12.84 73.02 12.99 72.60 12.99C71.85 13.01 71.44 12.50 71.44 11.47L71.44 6.94L73.92 6.94L73.92 6.44L71.44 6.44L71.44 4.63L70.88 4.63L70.88 6.44L69.82 6.44ZM75.60 10.71C75.60 12.50 76.62 13.57 78.39 13.57C79.83 13.55 80.85 12.87 81.31 11.61L81.31 13.55L81.89 13.55L81.89 6.26L81.31 6.26L81.31 9.83C81.31 11.73 80.28 12.94 78.51 12.98C77.04 12.98 76.17 12.10 76.17 10.60L76.17 6.26L75.60 6.26ZM84.03 9.91C84.03 12.05 85.51 13.59 87.58 13.59C89.01 13.59 90.15 12.85 90.69 11.65L90.69 13.55L91.28 13.55L91.28 3.16L90.69 3.16L90.69 8.16C90.15 6.96 89.01 6.22 87.57 6.22C85.51 6.22 84.03 7.76 84.03 9.91ZM84.60 9.91C84.62 8.11 85.89 6.78 87.65 6.78C89.42 6.78 90.69 8.09 90.69 9.91C90.69 11.73 89.42 13.05 87.65 13.05C85.88 13.05 84.62 11.73 84.60 9.91ZM93.48 9.91C93.48 12.05 94.98 13.57 97.03 13.57C98.20 13.57 99.19 13.13 99.86 12.40L99.53 12.03C98.94 12.67 98.06 13.03 97.06 13.03C95.37 13.03 94.14 11.84 94.05 10.07L100.42 10.07C100.46 7.81 99.18 6.24 97.03 6.24C94.98 6.24 93.48 7.77 93.48 9.91ZM94.07 9.55C94.21 7.90 95.40 6.78 97.03 6.78C98.70 6.78 99.78 7.90 99.89 9.55Z"></path></g><defs data-v-423bf9ae=""><linearGradient data-v-423bf9ae="" gradientTransform="rotate(25)" id="4d9c3739-4c76-4c24-a0d2-323b802b3668" x1="0%" y1="0%" x2="100%" y2="0%"><stop data-v-423bf9ae="" offset="0%" style="stop-color: rgb(18, 38, 99); stop-opacity: 1;"></stop><stop data-v-423bf9ae="" offset="100%" style="stop-color: rgb(93, 215, 173); stop-opacity: 1;"></stop></linearGradient></defs><g data-v-423bf9ae="" id="9f79da6a-18cc-4700-9656-fd1cb83a1ad8" transform="matrix(1.2802404618315355,0,0,1.2802404618315355,-32.268770198945745,-19.35821602343748)" stroke="none" fill="url(#4d9c3739-4c76-4c24-a0d2-323b802b3668)"><path d="M38.088 49.644a2 2 0 0 1-1.562-3.249c.974-1.219 1.483-4.722 1.819-7.039.157-1.079.305-2.099.484-2.916.379-1.729.738-3.481 1.1-5.242.968-4.716 1.968-9.593 3.388-14.233a2 2 0 0 1 3.825 1.171c-1.365 4.459-2.346 9.241-3.295 13.866a420.231 420.231 0 0 1-1.111 5.294c-.148.677-.286 1.627-.432 2.634-.261 1.793-.54 3.72-1.02 5.432 3.501-.27 6.999-.455 10.335-.622 1.058-.043 1.984.739 2.09 1.8s-.641 2.019-1.696 2.175l-2.198.326c-.387.058-.763 0-1.096-.146-3.429.185-6.968.409-10.441.739a1.74 1.74 0 0 1-.19.01zM50.879 85.851c-1.36 0-2.705-.084-3.998-.165l-.7-.044a1.999 1.999 0 0 1-1.875-2.117c.066-1.104 1.008-1.957 2.117-1.875l.708.044c4.057.253 7.889.494 10.909-1.694 3.645-2.641 5.02-7.781 5.885-12.46 1.408-7.614 1.469-16.083.186-25.889a1.999 1.999 0 0 1 2.991-1.987c1.725 1.005 4.506 1.018 6.333.03.615-.333 1.357-.909 1.401-1.761.05-.555.041-1.171-.255-1.444-.358-.33-1.397-.566-3.248-.24a2.005 2.005 0 0 1-2.317-1.622 2.001 2.001 0 0 1 1.622-2.318c2.96-.523 5.197-.105 6.655 1.239.828.764 1.766 2.195 1.531 4.674-.102 2.026-1.342 3.829-3.486 4.989-2.031 1.099-4.556 1.458-6.888 1.081.934 8.912.738 16.782-.592 23.974-1.009 5.458-2.686 11.504-7.471 14.972-2.945 2.135-6.272 2.613-9.508 2.613z"></path><path d="M42.606 73.485c-2.061 0-3.977-.474-5.623-1.425a2 2 0 1 1 2.002-3.462c3.328 1.924 7.58.272 9.253-.528 3.61-1.725 6.244-4.347 7.226-7.195a1.996 1.996 0 0 1 2.542-1.239 1.998 1.998 0 0 1 1.239 2.542c-1.328 3.855-4.712 7.319-9.283 9.502-2.516 1.202-5.028 1.805-7.356 1.805zM53.598 26.104a2 2 0 0 1-1.336-3.489c2.454-2.201 6.123-2.768 9.127-1.412a2 2 0 0 1-1.645 3.646c-1.536-.692-3.559-.379-4.812.745-.382.342-.859.51-1.334.51zM27.597 26.104a2 2 0 0 1-1.336-3.489c2.454-2.201 6.121-2.769 9.128-1.413a2 2 0 1 1-1.646 3.646c-1.533-.692-3.559-.381-4.812.745a1.986 1.986 0 0 1-1.334.511z"></path></g><!----></svg>